<svg xmlns="http://www.w3.org/2000/svg" width="9728" height="5120" viewBox="0 0 9728 5120">
  <defs>
    <style>
      .cls-1 {
        opacity: 0.25;
      }

      .cls-10, .cls-2, .cls-4, .cls-6, .cls-8 {
        fill: none;
        stroke-width: 35.84px;
        fill-rule: evenodd;
      }

      .cls-2 {
        stroke: red;
      }

      .cls-11, .cls-3, .cls-5, .cls-7, .cls-9 {
        font-size: 90px;
        font-family: ROMANUS;
      }

      .cls-3 {
        fill: red;
      }

      .cls-4 {
        stroke: #00a651;
      }

      .cls-5 {
        fill: #00a651;
      }

      .cls-6 {
        stroke: #00aeef;
      }

      .cls-7 {
        fill: #00aeef;
      }

      .cls-8 {
        stroke: #01ff00;
      }

      .cls-9 {
        fill: #01ff00;
      }

      .cls-10 {
        stroke: aqua;
      }

      .cls-11 {
        fill: aqua;
      }
    </style>
  </defs>
  <g id="Tropics" class="cls-1">
    <path id="Equador" class="cls-2" d="M0,2564v-12H9728v12H0Zm0,0v-12H9728v12H0Z"/>
    <text id="Equador-2" data-name="Equador" class="cls-3" x="45.562" y="2522.639">Equador</text>
    <path id="Hoof" class="cls-4" d="M0,1975v-12H9728v12H0Zm0,0v-12H9728v12H0Z"/>
    <text id="Tropic_of_The_Hoof" data-name="Tropic of The Hoof" class="cls-5" x="46.248" y="1947.29">Tropic of The Hoof</text>
    <path id="Antransarctic" class="cls-6" d="M2,1072v-12H9730v12H2Zm0,0v-12H9730v12H2Z"/>
    <text id="Antransarctic_Circle" data-name="Antransarctic Circle" class="cls-7" x="61.781" y="1042.54">Antransarctic Circle</text>
    <path id="Paw" class="cls-8" d="M2,3153v-12H9730v12H2Zm0,0v-12H9730v12H2Z"/>
    <text id="Tropic_of_The_Paw" data-name="Tropic of The Paw" class="cls-9" x="46.075" y="3112.161">Tropic of The Paw</text>
    <path id="Transarctic" class="cls-10" d="M2,4055v-12H9730v12H2Zm0,0v-12H9730v12H2Z"/>
    <text id="Transarctic_Circle" data-name="Transarctic Circle" class="cls-11" x="45.936" y="4017.961">Transarctic Circle</text>
  </g>
</svg>
